<svg id="visual" viewBox="0 0 900 600" width="900" height="600" xmlns="http://www.w3.org/2000/svg"
     xmlns:xlink="http://www.w3.org/1999/xlink" version="1.1">
    <rect x="0" y="0" width="900" height="600" fill="#272e3a"></rect>
    <defs>
        <linearGradient id="grad1_0" x1="33.3%" y1="0%" x2="100%" y2="100%">
            <stop offset="20%" stop-color="#d7b2b1" stop-opacity="1"></stop>
            <stop offset="80%" stop-color="#d7b2b1" stop-opacity="1"></stop>
        </linearGradient>
    </defs>
    <defs>
        <linearGradient id="grad1_1" x1="33.3%" y1="0%" x2="100%" y2="100%">
            <stop offset="20%" stop-color="#d7b2b1" stop-opacity="1"></stop>
            <stop offset="80%" stop-color="#7c6b7b" stop-opacity="1"></stop>
        </linearGradient>
    </defs>
    <defs>
        <linearGradient id="grad1_2" x1="33.3%" y1="0%" x2="100%" y2="100%">
            <stop offset="20%" stop-color="#272e3a" stop-opacity="1"></stop>
            <stop offset="80%" stop-color="#7c6b7b" stop-opacity="1"></stop>
        </linearGradient>
    </defs>
    <defs>
        <linearGradient id="grad2_0" x1="0%" y1="0%" x2="66.7%" y2="100%">
            <stop offset="20%" stop-color="#d7b2b1" stop-opacity="1"></stop>
            <stop offset="80%" stop-color="#d7b2b1" stop-opacity="1"></stop>
        </linearGradient>
    </defs>
    <defs>
        <linearGradient id="grad2_1" x1="0%" y1="0%" x2="66.7%" y2="100%">
            <stop offset="20%" stop-color="#7c6b7b" stop-opacity="1"></stop>
            <stop offset="80%" stop-color="#d7b2b1" stop-opacity="1"></stop>
        </linearGradient>
    </defs>
    <defs>
        <linearGradient id="grad2_2" x1="0%" y1="0%" x2="66.7%" y2="100%">
            <stop offset="20%" stop-color="#7c6b7b" stop-opacity="1"></stop>
            <stop offset="80%" stop-color="#272e3a" stop-opacity="1"></stop>
        </linearGradient>
    </defs>
    <g transform="translate(900, 0)">
        <path d="M0 540.8C-18.7 497.1 -37.5 453.4 -51.6 424.9C-65.7 396.3 -75.2 382.9 -98.6 400C-122 417.1 -159.3 464.7 -169.5 446.9C-179.7 429.2 -162.9 346.1 -164.5 313.5C-166.1 280.8 -186 298.5 -227.8 330C-269.5 361.5 -333.1 406.9 -358.6 404.8C-384.2 402.7 -371.8 353.2 -342.1 303C-312.3 252.9 -265.3 202 -272.4 188C-279.5 174 -340.8 196.9 -387.8 203.5C-434.9 210.2 -467.8 200.7 -486.2 184.4C-504.6 168.1 -508.6 145 -494.2 121.8C-479.8 98.6 -447 75.2 -451.7 54.8C-456.4 34.5 -498.6 17.3 -540.8 0L0 0Z"
              fill="#4f4c5b"></path>
        <path d="M0 360.6C-12.5 331.4 -25 302.3 -34.4 283.3C-43.8 264.2 -50.1 255.3 -65.7 266.7C-81.3 278.1 -106.2 309.8 -113 298C-119.8 286.1 -108.6 230.8 -109.7 209C-110.7 187.2 -124 199 -151.9 220C-179.7 241 -222 271.3 -239.1 269.9C-256.1 268.5 -247.9 235.5 -228 202C-208.2 168.6 -176.9 134.7 -181.6 125.4C-186.3 116 -227.2 131.3 -258.6 135.7C-289.9 140.1 -311.9 133.8 -324.1 122.9C-336.4 112.1 -339.1 96.7 -329.5 81.2C-319.9 65.7 -298 50.1 -301.1 36.6C-304.3 23 -332.4 11.5 -360.6 0L0 0Z"
              fill="#aa8d97"></path>
        <path d="M0 180.3C-6.2 165.7 -12.5 151.1 -17.2 141.6C-21.9 132.1 -25.1 127.6 -32.9 133.3C-40.7 139 -53.1 154.9 -56.5 149C-59.9 143.1 -54.3 115.4 -54.8 104.5C-55.4 93.6 -62 99.5 -75.9 110C-89.8 120.5 -111 135.6 -119.5 134.9C-128.1 134.2 -123.9 117.7 -114 101C-104.1 84.3 -88.4 67.3 -90.8 62.7C-93.2 58 -113.6 65.6 -129.3 67.8C-145 70.1 -155.9 66.9 -162.1 61.5C-168.2 56 -169.5 48.3 -164.7 40.6C-159.9 32.9 -149 25.1 -150.6 18.3C-152.1 11.5 -166.2 5.8 -180.3 0L0 0Z"
              fill="#d7b2b1"></path>
    </g>
    <g transform="translate(0, 600)">
        <path d="M0 -540.8C15.1 -476.1 30.1 -411.5 47.6 -392.1C65.1 -372.8 84.9 -398.8 98.6 -400C112.3 -401.2 119.7 -377.7 152.1 -401.1C184.5 -424.6 241.9 -495.1 251.3 -478.9C260.8 -462.7 222.2 -359.9 227.8 -330C233.4 -300.1 283 -343.2 311 -351.1C339 -358.9 345.4 -331.6 344.3 -305C343.2 -278.5 334.7 -252.8 344.8 -238C354.9 -223.2 383.6 -219.2 383.4 -201.2C383.2 -183.2 354.2 -151.2 344.1 -130.5C334 -109.8 342.7 -100.3 369 -90.9C395.2 -81.6 439 -72.3 470.5 -57.1C502.1 -42 521.5 -21 540.8 0L0 0Z"
              fill="#4f4c5b"></path>
        <path d="M0 -360.6C10 -317.4 20.1 -274.3 31.7 -261.4C43.4 -248.5 56.6 -265.9 65.7 -266.7C74.8 -267.5 79.8 -251.8 101.4 -267.4C123 -283 161.3 -330 167.6 -319.3C173.8 -308.5 148.2 -239.9 151.9 -220C155.6 -200.1 188.7 -228.8 207.3 -234C226 -239.3 230.3 -221 229.5 -203.4C228.8 -185.7 223.2 -168.6 229.9 -158.7C236.6 -148.8 255.7 -146.1 255.6 -134.2C255.5 -122.2 236.1 -100.8 229.4 -87C222.6 -73.2 228.5 -66.9 246 -60.6C263.5 -54.4 292.7 -48.2 313.7 -38.1C334.7 -28 347.6 -14 360.6 0L0 0Z"
              fill="#aa8d97"></path>
        <path d="M0 -180.3C5 -158.7 10 -137.2 15.9 -130.7C21.7 -124.3 28.3 -132.9 32.9 -133.3C37.4 -133.7 39.9 -125.9 50.7 -133.7C61.5 -141.5 80.6 -165 83.8 -159.6C86.9 -154.2 74.1 -120 75.9 -110C77.8 -100 94.3 -114.4 103.7 -117C113 -119.6 115.1 -110.5 114.8 -101.7C114.4 -92.8 111.6 -84.3 114.9 -79.3C118.3 -74.4 127.9 -73.1 127.8 -67.1C127.7 -61.1 118.1 -50.4 114.7 -43.5C111.3 -36.6 114.2 -33.4 123 -30.3C131.7 -27.2 146.3 -24.1 156.8 -19C167.4 -14 173.8 -7 180.3 0L0 0Z"
              fill="#d7b2b1"></path>
    </g>
</svg>