<svg id="visual" viewBox="0 0 900 600" width="900" height="600" xmlns="http://www.w3.org/2000/svg" xmlns:xlink="http://www.w3.org/1999/xlink" version="1.1"><rect x="0" y="0" width="900" height="600" fill="#272e3a"></rect><defs><linearGradient id="grad1_0" x1="33.3%" y1="100%" x2="100%" y2="0%"><stop offset="20%" stop-color="#ff4b5a" stop-opacity="1"></stop><stop offset="80%" stop-color="#ff4b5a" stop-opacity="1"></stop></linearGradient></defs><defs><linearGradient id="grad1_1" x1="33.3%" y1="100%" x2="100%" y2="0%"><stop offset="20%" stop-color="#ff4b5a" stop-opacity="1"></stop><stop offset="80%" stop-color="#b24280" stop-opacity="1"></stop></linearGradient></defs><defs><linearGradient id="grad1_2" x1="33.3%" y1="100%" x2="100%" y2="0%"><stop offset="20%" stop-color="#584271" stop-opacity="1"></stop><stop offset="80%" stop-color="#b24280" stop-opacity="1"></stop></linearGradient></defs><defs><linearGradient id="grad1_3" x1="33.3%" y1="100%" x2="100%" y2="0%"><stop offset="20%" stop-color="#584271" stop-opacity="1"></stop><stop offset="80%" stop-color="#272e3a" stop-opacity="1"></stop></linearGradient></defs><defs><linearGradient id="grad2_0" x1="0%" y1="100%" x2="66.7%" y2="0%"><stop offset="20%" stop-color="#ff4b5a" stop-opacity="1"></stop><stop offset="80%" stop-color="#ff4b5a" stop-opacity="1"></stop></linearGradient></defs><defs><linearGradient id="grad2_1" x1="0%" y1="100%" x2="66.7%" y2="0%"><stop offset="20%" stop-color="#b24280" stop-opacity="1"></stop><stop offset="80%" stop-color="#ff4b5a" stop-opacity="1"></stop></linearGradient></defs><defs><linearGradient id="grad2_2" x1="0%" y1="100%" x2="66.7%" y2="0%"><stop offset="20%" stop-color="#b24280" stop-opacity="1"></stop><stop offset="80%" stop-color="#584271" stop-opacity="1"></stop></linearGradient></defs><defs><linearGradient id="grad2_3" x1="0%" y1="100%" x2="66.7%" y2="0%"><stop offset="20%" stop-color="#272e3a" stop-opacity="1"></stop><stop offset="80%" stop-color="#584271" stop-opacity="1"></stop></linearGradient></defs><g transform="translate(900, 600)"><path d="M-540.8 0C-496.7 -18.4 -452.5 -36.9 -433.8 -52.7C-415.1 -68.5 -421.9 -81.7 -449.5 -110.8C-477.1 -140 -525.5 -185.1 -478.7 -181.6C-431.9 -178 -289.9 -125.9 -290.4 -152.4C-290.9 -179 -434 -284.2 -445.1 -307.2C-456.2 -330.3 -335.5 -271.1 -275.5 -244C-215.4 -217 -216 -221.9 -233.4 -263.5C-250.9 -305 -285.1 -383.1 -281.2 -407.4C-277.2 -431.7 -235 -402.3 -214.2 -408.2C-193.4 -414.1 -194 -455.4 -183 -482.5C-171.9 -509.5 -149.2 -522.2 -125.4 -508.8C-101.6 -495.3 -76.5 -455.7 -55.4 -456.6C-34.4 -457.6 -17.2 -499.2 0 -540.8L0 0Z" fill="#373a58"></path><path d="M-405.6 0C-372.5 -13.8 -339.4 -27.7 -325.4 -39.5C-311.4 -51.4 -316.5 -61.2 -337.2 -83.1C-357.9 -105 -394.2 -138.8 -359 -136.2C-323.9 -133.5 -217.4 -94.4 -217.8 -114.3C-218.2 -134.2 -325.5 -213.1 -333.8 -230.4C-342.2 -247.7 -251.6 -203.3 -206.6 -183C-161.5 -162.7 -162 -166.5 -175.1 -197.6C-188.1 -228.8 -213.9 -287.3 -210.9 -305.5C-207.9 -323.8 -176.3 -301.7 -160.7 -306.1C-145.1 -310.6 -145.5 -341.6 -137.2 -361.9C-128.9 -382.1 -111.9 -391.7 -94.1 -381.6C-76.2 -371.5 -57.4 -341.8 -41.6 -342.5C-25.8 -343.2 -12.9 -374.4 0 -405.6L0 0Z" fill="#84447f"></path><path d="M-270.4 0C-248.3 -9.2 -226.2 -18.4 -216.9 -26.3C-207.6 -34.2 -211 -40.8 -224.8 -55.4C-238.6 -70 -262.8 -92.5 -239.4 -90.8C-216 -89 -145 -62.9 -145.2 -76.2C-145.5 -89.5 -217 -142.1 -222.5 -153.6C-228.1 -165.1 -167.8 -135.6 -137.7 -122C-107.7 -108.5 -108 -111 -116.7 -131.7C-125.4 -152.5 -142.6 -191.5 -140.6 -203.7C-138.6 -215.8 -117.5 -201.1 -107.1 -204.1C-96.7 -207.1 -97 -227.7 -91.5 -241.2C-86 -254.7 -74.6 -261.1 -62.7 -254.4C-50.8 -247.7 -38.3 -227.8 -27.7 -228.3C-17.2 -228.8 -8.6 -249.6 0 -270.4L0 0Z" fill="#de4073"></path><path d="M-135.2 0C-124.2 -4.6 -113.1 -9.2 -108.5 -13.2C-103.8 -17.1 -105.5 -20.4 -112.4 -27.7C-119.3 -35 -131.4 -46.3 -119.7 -45.4C-108 -44.5 -72.5 -31.5 -72.6 -38.1C-72.7 -44.7 -108.5 -71 -111.3 -76.8C-114.1 -82.6 -83.9 -67.8 -68.9 -61C-53.8 -54.2 -54 -55.5 -58.4 -65.9C-62.7 -76.3 -71.3 -95.8 -70.3 -101.8C-69.3 -107.9 -58.8 -100.6 -53.6 -102C-48.4 -103.5 -48.5 -113.9 -45.7 -120.6C-43 -127.4 -37.3 -130.6 -31.4 -127.2C-25.4 -123.8 -19.1 -113.9 -13.9 -114.2C-8.6 -114.4 -4.3 -124.8 0 -135.2L0 0Z" fill="#ff4b5a"></path></g><g transform="translate(0, 0)"><path d="M540.8 0C445.5 9.8 350.2 19.6 360.4 43.8C370.5 67.9 486.2 106.5 495.2 122.1C504.1 137.6 406.3 130.2 385.2 146.1C364.2 162 419.9 201.3 441 231.4C462 261.6 448.4 282.7 422.2 291.4C396 300.2 357.3 296.6 314.4 278.5C271.5 260.4 224.4 227.6 225.5 254.5C226.6 281.4 275.8 367.8 289.1 418.9C302.5 470 279.9 485.6 251.3 478.9C222.8 472.1 188.4 443 159.9 421.7C131.4 400.4 108.9 387 90 365.1C71.1 343.1 55.7 312.6 41.3 340.5C26.9 368.4 13.5 454.6 0 540.8L0 0Z" fill="#373a58"></path><path d="M405.6 0C334.1 7.3 262.6 14.7 270.3 32.8C277.9 50.9 364.7 79.9 371.4 91.5C378.1 103.2 304.7 97.6 288.9 109.6C273.1 121.5 314.9 151 330.7 173.6C346.5 196.2 336.3 212 316.6 218.6C297 225.1 268 222.5 235.8 208.9C203.6 195.3 168.3 170.7 169.1 190.9C169.9 211 206.9 275.9 216.9 314.2C226.9 352.5 209.9 364.2 188.5 359.2C167.1 354.1 141.3 332.2 119.9 316.3C98.6 300.3 81.7 290.3 67.5 273.8C53.3 257.3 41.8 234.5 31 255.4C20.2 276.3 10.1 340.9 0 405.6L0 0Z" fill="#84447f"></path><path d="M270.4 0C222.7 4.9 175.1 9.8 180.2 21.9C185.3 34 243.1 53.2 247.6 61C252.1 68.8 203.1 65.1 192.6 73C182.1 81 210 100.6 220.5 115.7C231 130.8 224.2 141.3 211.1 145.7C198 150.1 178.6 148.3 157.2 139.3C135.7 130.2 112.2 113.8 112.7 127.2C113.3 140.7 137.9 183.9 144.6 209.4C151.2 235 139.9 242.8 125.7 239.4C111.4 236.1 94.2 221.5 80 210.8C65.7 200.2 54.5 193.5 45 182.5C35.5 171.6 27.9 156.3 20.7 170.2C13.5 184.2 6.7 227.3 0 270.4L0 0Z" fill="#de4073"></path><path d="M135.2 0C111.4 2.4 87.5 4.9 90.1 10.9C92.6 17 121.6 26.6 123.8 30.5C126 34.4 101.6 32.5 96.3 36.5C91 40.5 105 50.3 110.2 57.9C115.5 65.4 112.1 70.7 105.5 72.9C99 75 89.3 74.2 78.6 69.6C67.9 65.1 56.1 56.9 56.4 63.6C56.6 70.3 69 92 72.3 104.7C75.6 117.5 70 121.4 62.8 119.7C55.7 118 47.1 110.7 40 105.4C32.9 100.1 27.2 96.8 22.5 91.3C17.8 85.8 13.9 78.2 10.3 85.1C6.7 92.1 3.4 113.6 0 135.2L0 0Z" fill="#ff4b5a"></path></g></svg>