<svg id="visual" viewBox="0 0 540 960" width="540" height="960" xmlns="http://www.w3.org/2000/svg" xmlns:xlink="http://www.w3.org/1999/xlink" version="1.1"><rect x="0" y="0" width="540" height="960" fill="#212932"></rect><path d="M0 670L18 658.3C36 646.7 72 623.3 108 616.5C144 609.7 180 619.3 216 617.5C252 615.7 288 602.3 324 606.8C360 611.3 396 633.7 432 642.2C468 650.7 504 645.3 522 642.7L540 640L540 961L522 961C504 961 468 961 432 961C396 961 360 961 324 961C288 961 252 961 216 961C180 961 144 961 108 961C72 961 36 961 18 961L0 961Z" fill="#fa7268"></path><path d="M0 638L18 642.8C36 647.7 72 657.3 108 656.3C144 655.3 180 643.7 216 638.5C252 633.3 288 634.7 324 645.7C360 656.7 396 677.3 432 689.5C468 701.7 504 705.3 522 707.2L540 709L540 961L522 961C504 961 468 961 432 961C396 961 360 961 324 961C288 961 252 961 216 961C180 961 144 961 108 961C72 961 36 961 18 961L0 961Z" fill="#f16367"></path><path d="M0 732L18 735.3C36 738.7 72 745.3 108 745.3C144 745.3 180 738.7 216 730.3C252 722 288 712 324 712.5C360 713 396 724 432 731C468 738 504 741 522 742.5L540 744L540 961L522 961C504 961 468 961 432 961C396 961 360 961 324 961C288 961 252 961 216 961C180 961 144 961 108 961C72 961 36 961 18 961L0 961Z" fill="#e85467"></path><path d="M0 803L18 803.8C36 804.7 72 806.3 108 798.8C144 791.3 180 774.7 216 776C252 777.3 288 796.7 324 796.8C360 797 396 778 432 766.8C468 755.7 504 752.3 522 750.7L540 749L540 961L522 961C504 961 468 961 432 961C396 961 360 961 324 961C288 961 252 961 216 961C180 961 144 961 108 961C72 961 36 961 18 961L0 961Z" fill="#de4467"></path><path d="M0 849L18 844C36 839 72 829 108 823.8C144 818.7 180 818.3 216 821.3C252 824.3 288 830.7 324 838.2C360 845.7 396 854.3 432 857.2C468 860 504 857 522 855.5L540 854L540 961L522 961C504 961 468 961 432 961C396 961 360 961 324 961C288 961 252 961 216 961C180 961 144 961 108 961C72 961 36 961 18 961L0 961Z" fill="#d23467"></path><path d="M0 872L18 873.3C36 874.7 72 877.3 108 883.3C144 889.3 180 898.7 216 900.2C252 901.7 288 895.3 324 888.8C360 882.3 396 875.7 432 879.8C468 884 504 899 522 906.5L540 914L540 961L522 961C504 961 468 961 432 961C396 961 360 961 324 961C288 961 252 961 216 961C180 961 144 961 108 961C72 961 36 961 18 961L0 961Z" fill="#c62368"></path></svg>